<?xml version="1.0" encoding="utf-8"?>
<svg version="1.1" xmlns="http://www.w3.org/2000/svg" xmlns:xlink="http://www.w3.org/1999/xlink" height="614.1120649817667" width="851.8896602126906">
  <defs>
    <path id="path-1" opacity="1" fill-rule="evenodd" d="M67.89003792483965,280.31682585499294 L777.9996222878508,280.31682585499294 C815.3470470612008,280.31682585499294 845.6684175115183,310.6381963053105 845.6684175115183,347.98562107866036 C845.6684175115183,385.33304585201023 815.3470470612008,415.6544163023278 777.9996222878508,415.6544163023278 L67.89003792483965,415.6544163023278 C30.542613151489782,415.6544163023278 0.22124270117224398,385.33304585201023 0.22124270117222977,347.98562107866036 "/>
    <linearGradient id="linearGradient-2" x1="0.16" y1="0.6" x2="0.67" y2="0.27">
      <stop offset="0" stop-color="rgb(144,48,217)" stop-opacity="0.77"/>
      <stop offset="1" stop-color="rgb(236,14,141)" stop-opacity="0.67"/>
    </linearGradient>
    <path id="path-3" opacity="1" fill-rule="evenodd" d="M198.5425032935089,425.7642136003908 L681.9116710935693,425.7642136003908 C709.6684815483654,425.7642136003908 732.2034899840655,448.299222036091 732.2034899840655,476.05603249088705 C732.2034903976743,503.8128421962766 709.6684822977719,526.3478509677745 681.9116718429759,526.3478513813833 L198.5425032935089,526.3478513813833 C170.78569283871286,526.3478513813833 148.25068440301266,503.8128429456831 148.25068440301266,476.05603249088705 "/>
    <linearGradient id="linearGradient-4" x1="0.16" y1="0.6" x2="0.67" y2="0.27">
      <stop offset="0" stop-color="rgb(144,48,217)" stop-opacity="1"/>
      <stop offset="1" stop-color="rgb(208,37,186)" stop-opacity="1"/>
    </linearGradient>
    <path id="path-5" opacity="1" fill-rule="evenodd" d="M252.74574389878757,121.01825395223128 L791.262423449688,121.01825395223128 C820.5753666439191,121.01825395223125 844.3737574292359,144.81664473754796 844.3737574292359,174.12958793177913 C844.3737574292359,203.4425311260103 820.5753666439191,227.240921911327 791.262423449688,227.24092191132698 L252.74574389878757,227.24092191132698 C223.4328007045564,227.24092191132698 199.63440991923972,203.4425311260103 199.63440991923972,174.12958793177913 "/>
    <linearGradient id="linearGradient-6" x1="0.16" y1="0.6" x2="0.67" y2="0.27">
      <stop offset="0" stop-color="rgb(144,48,217)" stop-opacity="1"/>
      <stop offset="1" stop-color="rgb(208,37,186)" stop-opacity="1"/>
    </linearGradient>
    <path id="path-7" opacity="1" fill-rule="evenodd" d="M73.89003792483965,253.31682585498658 L783.9996222878508,253.31682585498658 C821.3470470612008,253.31682585498658 851.6684175115183,283.6381963053041 851.6684175115183,320.985621078654 C851.6684175115183,358.33304585200386 821.3470470612008,388.6544163023214 783.9996222878508,388.6544163023214 L73.89003792483965,388.6544163023214 C36.54261315148978,388.6544163023214 6.221242701172244,358.33304585200386 6.22124270117223,320.985621078654 "/>
    <linearGradient id="linearGradient-8" x1="0.16" y1="0.6" x2="0.67" y2="0.27">
      <stop offset="0" stop-color="rgb(144,48,217)" stop-opacity="0.77"/>
      <stop offset="1" stop-color="rgb(236,14,141)" stop-opacity="0.67"/>
    </linearGradient>
    <path id="path-9" opacity="1" fill-rule="evenodd" d="M191.5425032935089,400.76421360038455 L674.9116710935693,400.76421360038455 C702.6684815483654,400.76421360038455 725.2034899840655,423.29922203608476 725.2034899840655,451.0560324908808 C725.2034903976743,478.81284219627037 702.6684822977719,501.3478509677683 674.9116718429759,501.34785138137704 L191.5425032935089,501.34785138137704 C163.78569283871286,501.34785138137704 141.25068440301266,478.81284294567683 141.25068440301266,451.0560324908808 "/>
    <linearGradient id="linearGradient-10" x1="0.16" y1="0.6" x2="0.67" y2="0.27">
      <stop offset="0" stop-color="rgb(144,48,217)" stop-opacity="1"/>
      <stop offset="1" stop-color="rgb(208,37,186)" stop-opacity="1"/>
    </linearGradient>
    <path id="path-11" opacity="1" fill-rule="evenodd" d="M257.74574389878757,97.01825395223128 L796.262423449688,97.01825395223128 C825.5753666439191,97.01825395223125 849.3737574292359,120.81664473754796 849.3737574292359,150.12958793177913 C849.3737574292359,179.4425311260103 825.5753666439191,203.240921911327 796.262423449688,203.24092191132698 L257.74574389878757,203.24092191132698 C228.4328007045564,203.24092191132698 204.63440991923972,179.4425311260103 204.63440991923972,150.12958793177913 "/>
    <linearGradient id="linearGradient-12" x1="0.16" y1="0.6" x2="0.67" y2="0.27">
      <stop offset="0" stop-color="rgb(144,48,217)" stop-opacity="1"/>
      <stop offset="1" stop-color="rgb(208,37,186)" stop-opacity="1"/>
    </linearGradient>
  </defs>
  <g opacity="1">
    <g opacity="0.32">
      <g transform="translate(422.94483010634525, 347.98562107866036) rotate(342.00012228694516) translate(-422.94483010634525, -347.98562107866036)" opacity="0.48">
        <use xlink:href="#path-1" fill="url(#linearGradient-2)"/>
      </g>
      <g transform="translate(440.2270871935391, 476.05603249088705) rotate(342.00012228694516) translate(-440.2270871935391, -476.05603249088705)" opacity="0.48">
        <use xlink:href="#path-3" fill="url(#linearGradient-4)"/>
      </g>
      <g transform="translate(522.0040836742378, 174.12958793177913) rotate(342.00012228694516) translate(-522.0040836742378, -174.12958793177913)" opacity="0.48">
        <use xlink:href="#path-5" fill="url(#linearGradient-6)"/>
      </g>
    </g>
    <g opacity="1">
      <g transform="translate(428.94483010634525, 320.985621078654) rotate(342.00012228694516) translate(-428.94483010634525, -320.985621078654)" opacity="1">
        <use xlink:href="#path-7" fill="url(#linearGradient-8)"/>
      </g>
      <g transform="translate(433.2270871935391, 451.0560324908808) rotate(342.00012228694516) translate(-433.2270871935391, -451.0560324908808)" opacity="1">
        <use xlink:href="#path-9" fill="url(#linearGradient-10)"/>
      </g>
    </g>
    <g transform="translate(527.0040836742378, 150.12958793177913) rotate(342.00012228694516) translate(-527.0040836742378, -150.12958793177913)" opacity="1">
      <use xlink:href="#path-11" fill="url(#linearGradient-12)"/>
    </g>
  </g>
</svg>