<?xml version="1.0" encoding="utf-8"?>
<svg version="1.1" xmlns="http://www.w3.org/2000/svg" xmlns:xlink="http://www.w3.org/1999/xlink" height="1032.2640655103241" width="2853.7091181999626">
  <defs>
    <path id="path-1" opacity="1" fill-rule="evenodd" d="M1778.7457438987876,194.01825395223113 L2317.262423449688,194.01825395223113 C2346.575366643919,194.0182539522311 2370.373757429236,217.81664473754782 2370.373757429236,247.12958793177899 C2370.373757429236,276.4425311260102 2346.575366643919,300.24092191132684 2317.262423449688,300.24092191132684 L1778.7457438987876,300.24092191132684 C1749.4328007045565,300.24092191132684 1725.6344099192397,276.4425311260102 1725.6344099192397,247.12958793177899 C1725.6344099192397,217.81664473754782 1749.4328007045565,194.01825395223113 1778.7457438987876,194.01825395223113Z"/>
    <linearGradient id="linearGradient-2" x1="0.16" y1="0.6" x2="0.67" y2="0.27">
      <stop offset="0" stop-color="rgb(144,48,217)" stop-opacity="1"/>
      <stop offset="1" stop-color="rgb(208,37,186)" stop-opacity="1"/>
    </linearGradient>
    <path id="path-3" opacity="1" fill-rule="evenodd" d="M1724.5425032935088,498.7642136003906 L2207.9116710935696,498.7642136003906 C2235.6684815483654,498.7642136003906 2258.2034899840655,521.2992220360908 2258.2034899840655,549.0560324908868 C2258.203490397674,576.8128421962764 2235.668482297772,599.3478509677743 2207.911671842976,599.3478513813831 L1724.5425032935088,599.3478513813831 C1696.7856928387127,599.3478513813831 1674.2506844030127,576.8128429456829 1674.2506844030127,549.0560324908868 C1674.2506844030127,521.2992220360908 1696.7856928387127,498.7642136003906 1724.5425032935088,498.7642136003906Z"/>
    <linearGradient id="linearGradient-4" x1="0.16" y1="0.6" x2="0.67" y2="0.27">
      <stop offset="0" stop-color="rgb(144,48,217)" stop-opacity="1"/>
      <stop offset="1" stop-color="rgb(208,37,186)" stop-opacity="1"/>
    </linearGradient>
    <path id="path-5" opacity="1" fill-rule="evenodd" d="M1783.7457438987876,170.01825395223113 L2322.262423449688,170.01825395223113 C2351.575366643919,170.0182539522311 2375.373757429236,193.81664473754782 2375.373757429236,223.12958793177899 C2375.373757429236,252.44253112601015 2351.575366643919,276.24092191132684 2322.262423449688,276.24092191132684 L1783.7457438987876,276.24092191132684 C1754.4328007045565,276.24092191132684 1730.6344099192397,252.44253112601015 1730.6344099192397,223.12958793177899 C1730.6344099192397,193.81664473754782 1754.4328007045565,170.01825395223113 1783.7457438987876,170.01825395223113Z"/>
    <linearGradient id="linearGradient-6" x1="0.16" y1="0.6" x2="0.67" y2="0.27">
      <stop offset="0" stop-color="rgb(144,48,217)" stop-opacity="1"/>
      <stop offset="1" stop-color="rgb(208,37,186)" stop-opacity="1"/>
    </linearGradient>
    <path id="path-7" opacity="1" fill-rule="evenodd" d="M1717.5425032935088,473.7642136003851 L2200.9116710935696,473.7642136003851 C2228.6684815483654,473.7642136003851 2251.2034899840655,496.2992220360853 2251.2034899840655,524.0560324908813 C2251.203490397674,551.8128421962709 2228.668482297772,574.3478509677689 2200.911671842976,574.3478513813776 L1717.5425032935088,574.3478513813776 C1689.7856928387127,574.3478513813776 1667.2506844030127,551.8128429456774 1667.2506844030127,524.0560324908813 C1667.2506844030127,496.2992220360853 1689.7856928387127,473.7642136003851 1717.5425032935088,473.7642136003851Z"/>
    <linearGradient id="linearGradient-8" x1="0.16" y1="0.6" x2="0.67" y2="0.27">
      <stop offset="0" stop-color="rgb(144,48,217)" stop-opacity="1"/>
      <stop offset="1" stop-color="rgb(208,37,186)" stop-opacity="1"/>
    </linearGradient>
    <path id="path-9" opacity="1" fill-rule="evenodd" d="M68.13290464782165,316.25770194924826 L768.3181148307394,316.25770194924826 C805.6655396040894,316.25770194924826 835.986910054407,346.5790723995658 835.9869100544068,383.9264971729157 C835.986910054407,421.27392194626555 805.6655396040894,451.5952923965831 768.3181148307395,451.5952923965831 L68.13290464782165,451.5952923965831 C30.785479874471783,451.5952923965831 0.4641094241542447,421.27392194626555 0.4641094241542305,383.9264971729157 C0.4641094241542305,346.5790723995658 30.78547987447176,316.25770194924826 68.13290464782165,316.25770194924826Z"/>
    <linearGradient id="linearGradient-10" x1="0.16" y1="0.6" x2="0.67" y2="0.27">
      <stop offset="0" stop-color="rgb(144,48,217)" stop-opacity="0.77"/>
      <stop offset="1" stop-color="rgb(236,14,141)" stop-opacity="0.67"/>
    </linearGradient>
    <path id="path-11" opacity="1" fill-rule="evenodd" d="M250.64777733629143,156.95913004648628 L781.5961135016291,156.95913004648628 C810.9090566958603,156.95913004648625 834.707447481177,180.75752083180296 834.707447481177,210.07046402603413 C834.707447481177,239.3834072202653 810.9090566958603,263.181798005582 781.5961135016291,263.181798005582 L250.64777733629143,263.181798005582 C221.33483414206026,263.181798005582 197.53644335674358,239.3834072202653 197.53644335674358,210.07046402603413 C197.53644335674358,180.75752083180296 221.33483414206026,156.95913004648628 250.64777733629143,156.95913004648628Z"/>
    <linearGradient id="linearGradient-12" x1="0.16" y1="0.6" x2="0.67" y2="0.27">
      <stop offset="0" stop-color="rgb(144,48,217)" stop-opacity="1"/>
      <stop offset="1" stop-color="rgb(208,37,186)" stop-opacity="1"/>
    </linearGradient>
    <path id="path-13" opacity="1" fill-rule="evenodd" d="M197.04771021598498,461.7050896946457 L673.5620841048802,461.7050896946457 C701.3188945596763,461.70508969464566 723.8539029953766,484.2400981303459 723.8539029953765,511.99690858514197 C723.8539029953766,539.753719039938 701.3188945596763,562.2887274756382 673.5620841048802,562.2887274756382 L197.04771021598498,562.2887274756382 C169.29089976118894,562.2887274756382 146.75589132548873,539.753719039938 146.75589132548873,511.99690858514197 C146.75589132548873,484.2400981303459 169.2908997611889,461.7050896946457 197.04771021598498,461.7050896946457Z"/>
    <linearGradient id="linearGradient-14" x1="0.16" y1="0.6" x2="0.67" y2="0.27">
      <stop offset="0" stop-color="rgb(144,48,217)" stop-opacity="1"/>
      <stop offset="1" stop-color="rgb(208,37,186)" stop-opacity="1"/>
    </linearGradient>
    <path id="path-15" opacity="1" fill-rule="evenodd" d="M74.06247299123243,289.2577019492419 L774.2476831741502,289.2577019492419 C811.5951079475002,289.2577019492419 841.9164783978177,319.57907239955944 841.9164783978176,356.9264971729093 C841.9164783978177,394.2739219462592 811.5951079475002,424.5952923965767 774.2476831741503,424.5952923965767 L74.06247299123243,424.5952923965767 C36.71504821788256,424.5952923965767 6.393677767565023,394.2739219462592 6.393677767565009,356.9264971729093 C6.393677767565009,319.57907239955944 36.71504821788254,289.2577019492419 74.06247299123243,289.2577019492419Z"/>
    <linearGradient id="linearGradient-16" x1="0.16" y1="0.6" x2="0.67" y2="0.27">
      <stop offset="0" stop-color="rgb(144,48,217)" stop-opacity="0.77"/>
      <stop offset="1" stop-color="rgb(236,14,141)" stop-opacity="0.67"/>
    </linearGradient>
    <path id="path-17" opacity="1" fill-rule="evenodd" d="M755.5890842891338,242.95913004648628 L1286.5374204544714,242.95913004648628 C1315.8503636487026,242.95913004648625 1339.6487544340193,266.75752083180294 1339.6487544340193,296.07046402603413 C1339.6487544340193,325.3834072202653 1315.8503636487026,349.181798005582 1286.5374204544714,349.181798005582 L755.5890842891338,349.181798005582 C726.2761410949025,349.181798005582 702.4777503095859,325.3834072202653 702.4777503095859,296.07046402603413 C702.4777503095859,266.757520831803 726.2761410949025,242.95913004648628 755.5890842891338,242.95913004648628Z"/>
    <linearGradient id="linearGradient-18" x1="0.16" y1="0.6" x2="0.67" y2="0.27">
      <stop offset="0" stop-color="rgb(144,48,217)" stop-opacity="1"/>
      <stop offset="1" stop-color="rgb(208,37,186)" stop-opacity="1"/>
    </linearGradient>
    <path id="path-19" opacity="1" fill-rule="evenodd" d="M190.12988048200572,436.70508969464026 L666.644254370901,436.70508969464026 C694.4010648256971,436.70508969464026 716.9360732613972,459.24009813034047 716.9360732613972,486.9969085851365 C716.9360736750059,514.7537182905261 694.4010655751035,537.288727062024 666.6442551203075,537.2887274756328 L190.12988048200572,537.2887274756328 C162.37307002720968,537.2887274756328 139.83806159150947,514.7537190399325 139.83806159150947,486.9969085851365 C139.83806159150947,459.24009813034047 162.37307002720965,436.70508969464026 190.12988048200572,436.70508969464026Z"/>
    <linearGradient id="linearGradient-20" x1="0.16" y1="0.6" x2="0.67" y2="0.27">
      <stop offset="0" stop-color="rgb(144,48,217)" stop-opacity="1"/>
      <stop offset="1" stop-color="rgb(208,37,186)" stop-opacity="1"/>
    </linearGradient>
    <path id="path-21" opacity="1" fill-rule="evenodd" d="M885.0555143032775,159.64344744809932 L1458.8951313548566,159.64344744809932 C1460.9755824509843,159.6434474480993 1462.664644783188,161.3325097803026 1462.6646447831877,163.41296087643042 C1462.664644783188,165.49341197255825 1460.9755824509843,167.18247430476154 1458.8951313548569,167.1824743047615 L885.0555143032775,167.1824743047615 C882.9750632071498,167.1824743047615 881.2860008749465,165.49341197255825 881.2860008749465,163.41296087643042 C881.2860008749465,161.3325097803026 882.9750632071498,159.64344744809932 885.0555143032775,159.64344744809932Z"/>
    <linearGradient id="linearGradient-22" x1="0.16" y1="0.6" x2="0.67" y2="0.27">
      <stop offset="0" stop-color="rgb(144,48,217)" stop-opacity="1"/>
      <stop offset="1" stop-color="rgb(208,37,185)" stop-opacity="0.05"/>
    </linearGradient>
    <path id="path-23" opacity="1" fill-rule="evenodd" d="M1606.0555143032775,89.64344744809932 L2179.895131354857,89.64344744809932 C2181.9755824509843,89.6434474480993 2183.664644783188,91.3325097803026 2183.6646447831877,93.41296087643042 C2183.664644783188,95.49341197255823 2181.9755824509843,97.18247430476154 2179.895131354857,97.18247430476151 L1606.0555143032775,97.18247430476151 C1603.9750632071498,97.18247430476151 1602.2860008749465,95.49341197255823 1602.2860008749465,93.41296087643042 C1602.2860008749465,91.3325097803026 1603.9750632071498,89.64344744809932 1606.0555143032775,89.64344744809932Z"/>
    <linearGradient id="linearGradient-24" x1="0.16" y1="0.6" x2="0.67" y2="0.27">
      <stop offset="0" stop-color="rgb(144,48,217)" stop-opacity="1"/>
      <stop offset="1" stop-color="rgb(208,37,185)" stop-opacity="0.05"/>
    </linearGradient>
    <path id="path-25" opacity="1" fill-rule="evenodd" d="M1225.0555143032775,349.6434474480993 L1798.8951313548566,349.6434474480993 C1800.9755824509843,349.64344744809927 1802.664644783188,351.3325097803026 1802.6646447831877,353.4129608764304 C1802.664644783188,355.49341197255825 1800.9755824509843,357.18247430476157 1798.8951313548569,357.1824743047615 L1225.0555143032775,357.1824743047615 C1222.9750632071498,357.1824743047615 1221.2860008749465,355.49341197255825 1221.2860008749465,353.4129608764304 C1221.2860008749465,351.3325097803026 1222.9750632071498,349.6434474480993 1225.0555143032775,349.6434474480993Z"/>
    <linearGradient id="linearGradient-26" x1="0.16" y1="0.6" x2="0.67" y2="0.27">
      <stop offset="0" stop-color="rgb(144,48,217)" stop-opacity="1"/>
      <stop offset="1" stop-color="rgb(208,37,185)" stop-opacity="0.05"/>
    </linearGradient>
    <path id="path-27" opacity="1" fill-rule="evenodd" d="M433.8900379248395,459.316825854994 L1143.9996222878508,459.316825854994 C1181.3470470612006,459.316825854994 1211.668417511518,489.63819630531157 1211.668417511518,526.9856210786614 C1211.668417511518,564.3330458520113 1181.3470470612006,594.6544163023289 1143.9996222878508,594.6544163023289 L433.8900379248395,594.6544163023289 C396.5426131514896,594.6544163023289 366.22124270117206,564.3330458520113 366.22124270117206,526.9856210786614 C366.22124270117206,489.63819630531157 396.5426131514896,459.316825854994 433.8900379248395,459.316825854994Z"/>
    <linearGradient id="linearGradient-28" x1="0.16" y1="0.6" x2="0.67" y2="0.27">
      <stop offset="0" stop-color="rgb(144,48,217)" stop-opacity="0.77"/>
      <stop offset="1" stop-color="rgb(236,14,141)" stop-opacity="0.67"/>
    </linearGradient>
    <path id="path-29" opacity="1" fill-rule="evenodd" d="M761.5425032935088,554.7642136003906 L1244.9116710935693,554.7642136003906 C1272.6684815483654,554.7642136003906 1295.2034899840655,577.2992220360908 1295.2034899840655,605.0560324908868 C1295.2034903976742,632.8128421962764 1272.6684822977718,655.3478509677743 1244.911671842976,655.3478513813831 L761.5425032935088,655.3478513813831 C733.7856928387129,655.3478513813831 711.2506844030127,632.8128429456829 711.2506844030127,605.0560324908868 C711.2506844030127,577.2992220360908 733.7856928387129,554.7642136003906 761.5425032935088,554.7642136003906Z"/>
    <linearGradient id="linearGradient-30" x1="0.16" y1="0.6" x2="0.67" y2="0.27">
      <stop offset="0" stop-color="rgb(144,48,217)" stop-opacity="1"/>
      <stop offset="1" stop-color="rgb(208,37,186)" stop-opacity="1"/>
    </linearGradient>
    <path id="path-31" opacity="1" fill-rule="evenodd" d="M417.8900379248396,451.31682585498675 L1127.9996222878508,451.31682585498675 C1165.3470470612006,451.31682585498675 1195.6684175115183,481.6381963053043 1195.6684175115183,518.9856210786542 C1195.6684175115183,556.333045852004 1165.3470470612006,586.6544163023216 1127.9996222878508,586.6544163023216 L417.8900379248396,586.6544163023216 C380.5426131514897,586.6544163023216 350.2212427011722,556.333045852004 350.2212427011722,518.9856210786542 C350.2212427011722,481.6381963053043 380.5426131514897,451.31682585498675 417.8900379248396,451.31682585498675Z"/>
    <linearGradient id="linearGradient-32" x1="0.16" y1="0.6" x2="0.67" y2="0.27">
      <stop offset="0" stop-color="rgb(144,48,217)" stop-opacity="0.77"/>
      <stop offset="1" stop-color="rgb(236,14,141)" stop-opacity="0.67"/>
    </linearGradient>
    <path id="path-33" opacity="1" fill-rule="evenodd" d="M754.5425032935088,529.7642136003851 L1237.9116710935693,529.7642136003851 C1265.6684815483654,529.7642136003851 1288.2034899840655,552.2992220360853 1288.2034899840655,580.0560324908813 C1288.2034903976742,607.8128421962709 1265.6684822977718,630.3478509677689 1237.911671842976,630.3478513813776 L754.5425032935088,630.3478513813776 C726.7856928387129,630.3478513813776 704.2506844030127,607.8128429456774 704.2506844030127,580.0560324908813 C704.2506844030127,552.2992220360853 726.7856928387129,529.7642136003851 754.5425032935088,529.7642136003851Z"/>
    <linearGradient id="linearGradient-34" x1="0.16" y1="0.6" x2="0.67" y2="0.27">
      <stop offset="0" stop-color="rgb(144,48,217)" stop-opacity="1"/>
      <stop offset="1" stop-color="rgb(208,37,186)" stop-opacity="1"/>
    </linearGradient>
    <path id="path-35" opacity="1" fill-rule="evenodd" d="M2069.7094959121114,342.184507715825 L2779.819080275123,342.184507715825 C2817.1665050484726,342.184507715825 2847.4878754987903,372.50587816614257 2847.4878754987903,409.85330293949244 C2847.4878754987903,447.2007277128423 2817.1665050484726,477.52209816315985 2779.819080275123,477.52209816315985 L2069.7094959121114,477.52209816315985 C2032.3620711387616,477.52209816315985 2002.040700688444,447.2007277128423 2002.040700688444,409.85330293949244 C2002.040700688444,372.50587816614257 2032.3620711387616,342.184507715825 2069.7094959121114,342.184507715825Z"/>
    <linearGradient id="linearGradient-36" x1="0.16" y1="0.6" x2="0.67" y2="0.27">
      <stop offset="0" stop-color="rgb(144,48,217)" stop-opacity="0.77"/>
      <stop offset="1" stop-color="rgb(236,14,141)" stop-opacity="0.67"/>
    </linearGradient>
    <path id="path-37" opacity="1" fill-rule="evenodd" d="M2075.7094959121114,315.18450771581865 L2785.819080275123,315.18450771581865 C2823.1665050484726,315.18450771581865 2853.4878754987903,345.5058781661362 2853.4878754987903,382.85330293948607 C2853.4878754987903,420.20072771283594 2823.1665050484726,450.5220981631535 2785.819080275123,450.5220981631535 L2075.7094959121114,450.5220981631535 C2038.3620711387616,450.5220981631535 2008.040700688444,420.20072771283594 2008.040700688444,382.85330293948607 C2008.040700688444,345.5058781661362 2038.3620711387616,315.18450771581865 2075.7094959121114,315.18450771581865Z"/>
    <linearGradient id="linearGradient-38" x1="0.16" y1="0.6" x2="0.67" y2="0.27">
      <stop offset="0" stop-color="rgb(144,48,217)" stop-opacity="0.77"/>
      <stop offset="1" stop-color="rgb(236,14,141)" stop-opacity="0.67"/>
    </linearGradient>
    <path id="path-39" opacity="1" fill-rule="evenodd" d="M2193.361961280781,462.6318954612161 L2676.731129080841,462.6318954612161 C2704.4879395356375,462.6318954612161 2727.0229479713375,485.1669038969163 2727.0229479713375,512.9237143517123 C2727.022948384946,540.6805240571019 2704.487940285044,563.2155328285999 2676.731129830248,563.2155332422086 L2193.361961280781,563.2155332422086 C2165.6051508259848,563.2155332422086 2143.0701423902847,540.6805248065084 2143.0701423902847,512.9237143517123 C2143.0701423902847,485.1669038969163 2165.6051508259848,462.6318954612161 2193.361961280781,462.6318954612161Z"/>
    <linearGradient id="linearGradient-40" x1="0.16" y1="0.6" x2="0.67" y2="0.27">
      <stop offset="0" stop-color="rgb(144,48,217)" stop-opacity="1"/>
      <stop offset="1" stop-color="rgb(208,37,186)" stop-opacity="1"/>
    </linearGradient>
    <path id="path-41" opacity="1" fill-rule="evenodd" d="M1523.3619612807806,414.6318954612143 L2006.7311290808411,414.6318954612143 C2034.4879395356372,414.6318954612143 2057.022947971337,437.1669038969145 2057.022947971337,464.92371435171054 C2057.022948384946,492.6805240571001 2034.4879402850438,515.215532828598 2006.7311298302477,515.2155332422068 L1523.3619612807806,515.2155332422068 C1495.6051508259848,515.2155332422068 1473.0701423902844,492.6805248065066 1473.0701423902844,464.92371435171054 C1473.0701423902844,437.1669038969145 1495.6051508259845,414.6318954612143 1523.3619612807806,414.6318954612143Z"/>
    <linearGradient id="linearGradient-42" x1="0.16" y1="0.6" x2="0.67" y2="0.27">
      <stop offset="0" stop-color="rgb(144,48,217)" stop-opacity="1"/>
      <stop offset="1" stop-color="rgb(208,37,186)" stop-opacity="1"/>
    </linearGradient>
    <path id="path-43" opacity="1" fill-rule="evenodd" d="M2044.3684015907156,582.4392156069316 C2071.5991272641536,582.4392156069316 2093.707021604555,604.5471099473325 2093.707021604555,631.7778356207707 L2093.707021604555,874.7596789883239 C2093.707021604555,901.9904046617621 2071.5991272641536,924.098299002163 2044.3684015907156,924.098299002163 C2017.1376759172774,924.098299002163 1995.0297815768765,901.9904046617621 1995.0297815768765,874.7596789883239 L1995.0297815768765,631.7778356207707 C1995.0297815768765,604.5471099473325 2017.1376759172774,582.4392156069316 2044.3684015907156,582.4392156069316 L2044.3684015907156,582.4392156069316Z"/>
    <linearGradient id="linearGradient-44" x1="0.5" y1="0" x2="0.5" y2="1">
      <stop offset="0" stop-color="rgb(215,29,225)" stop-opacity="1"/>
      <stop offset="1" stop-color="rgb(70,26,249)" stop-opacity="1"/>
    </linearGradient>
    <mask id="mask-45" maskUnits="userSpaceOnUse" maskContentUnits="userSpaceOnUse">
      <rect opacity="1" x="0" y="0" width="2853.7091181999626" height="1032.2640655103241" fill="black"/>
      <use xlink:href="#path-43" fill="white"/>
    </mask>
    <path id="path-46" opacity="1" fill-rule="evenodd" d="M1727.4563447415678,436 C1826.500997645214,436 1906.9126894831356,516.4116918379217 1906.9126894831356,615.4563447415678 L1906.9126894831356,852.8077207687572 C1906.9126894831356,951.8523736724034 1826.500997645214,1032.264065510325 1727.4563447415678,1032.264065510325 C1628.4116918379218,1032.264065510325 1548,951.8523736724034 1548,852.8077207687572 L1548,615.4563447415678 C1548,516.4116918379218 1628.4116918379218,436 1727.4563447415678,436 L1727.4563447415678,436Z"/>
    <linearGradient id="linearGradient-47" x1="0.5" y1="0" x2="0.5" y2="1">
      <stop offset="0" stop-color="rgb(232,76,240)" stop-opacity="1"/>
      <stop offset="1" stop-color="rgb(109,75,244)" stop-opacity="1"/>
    </linearGradient>
    <mask id="mask-48" maskUnits="userSpaceOnUse" maskContentUnits="userSpaceOnUse">
      <rect opacity="1" x="0" y="0" width="2853.7091181999626" height="1032.2640655103241" fill="black"/>
      <use xlink:href="#path-46" fill="white"/>
    </mask>
    <path id="path-49" opacity="1" fill-rule="evenodd" d="M803.9563447415679,66 C906.588445304425,66 989.9126894831359,149.32424417871076 989.9126894831359,251.95634474156793 L989.9126894831359,444.30772076875667 C989.9126894831359,546.9398213316139 906.588445304425,630.2640655103246 803.9563447415679,630.2640655103246 C701.3242441787108,630.2640655103246 618,546.9398213316139 618,444.30772076875667 L618,251.95634474156793 C618,149.32424417871079 701.3242441787107,66.00000000000003 803.9563447415679,66 L803.9563447415679,66Z"/>
    <linearGradient id="linearGradient-50" x1="0.5" y1="0" x2="0.5" y2="1">
      <stop offset="0" stop-color="rgb(232,76,240)" stop-opacity="1"/>
      <stop offset="1" stop-color="rgb(109,75,244)" stop-opacity="1"/>
    </linearGradient>
    <mask id="mask-51" maskUnits="userSpaceOnUse" maskContentUnits="userSpaceOnUse">
      <rect opacity="1" x="0" y="0" width="2853.7091181999626" height="1032.2640655103241" fill="black"/>
      <use xlink:href="#path-49" fill="white"/>
    </mask>
  </defs>
  <g opacity="1">
    <g opacity="0.38">
      <g opacity="0.32">
        <g transform="translate(2048.004083674238, 247.12958793177899) rotate(342.00012228694516) translate(-2048.004083674238, -247.12958793177899)" opacity="0.48">
          <use xlink:href="#path-1" fill="url(#linearGradient-2)"/>
        </g>
        <g transform="translate(1966.227087193539, 549.0560324908868) rotate(342.00012228694516) translate(-1966.227087193539, -549.0560324908868)" opacity="0.48">
          <use xlink:href="#path-3" fill="url(#linearGradient-4)"/>
        </g>
      </g>
      <g opacity="1">
        <g transform="translate(2053.004083674238, 223.12958793177899) rotate(342.00012228694516) translate(-2053.004083674238, -223.12958793177899)" opacity="1">
          <use xlink:href="#path-5" fill="url(#linearGradient-6)"/>
        </g>
        <g transform="translate(1959.227087193539, 524.0560324908813) rotate(342.00012228694516) translate(-1959.227087193539, -524.0560324908813)" opacity="1">
          <use xlink:href="#path-7" fill="url(#linearGradient-8)"/>
        </g>
      </g>
    </g>
    <g opacity="0.38">
      <g opacity="0.32">
        <g transform="translate(418.22550973928054, 383.9264971729157) rotate(342.00012228694516) translate(-418.22550973928054, -383.9264971729157)" opacity="0.48">
          <use xlink:href="#path-9" fill="url(#linearGradient-10)"/>
        </g>
        <g transform="translate(516.1219454189603, 210.07046402603413) rotate(342.00012228694516) translate(-516.1219454189603, -210.07046402603413)" opacity="0.48">
          <use xlink:href="#path-11" fill="url(#linearGradient-12)"/>
        </g>
        <g transform="translate(435.30489716043263, 511.99690858514197) rotate(342.00012228694516) translate(-435.30489716043263, -511.99690858514197)" opacity="0.48">
          <use xlink:href="#path-13" fill="url(#linearGradient-14)"/>
        </g>
      </g>
      <g opacity="1">
        <g transform="translate(424.1550780826913, 356.9264971729093) rotate(342.00012228694516) translate(-424.1550780826913, -356.9264971729093)" opacity="1">
          <use xlink:href="#path-15" fill="url(#linearGradient-16)"/>
        </g>
        <g transform="translate(1021.0632523718026, 296.07046402603413) rotate(342.00012228694516) translate(-1021.0632523718026, -296.07046402603413)" opacity="1">
          <use xlink:href="#path-17" fill="url(#linearGradient-18)"/>
        </g>
        <g transform="translate(428.3870674264533, 486.9969085851365) rotate(342.00012228694516) translate(-428.3870674264533, -486.9969085851365)" opacity="1">
          <use xlink:href="#path-19" fill="url(#linearGradient-20)"/>
        </g>
        <g transform="translate(1171.9753228290672, 163.41296087643042) rotate(342.00012228694516) translate(-1171.9753228290672, -163.41296087643042)" opacity="1">
          <use xlink:href="#path-21" fill="url(#linearGradient-22)"/>
        </g>
        <g transform="translate(1892.9753228290672, 93.41296087643042) rotate(342.00012228694516) translate(-1892.9753228290672, -93.41296087643042)" opacity="1">
          <use xlink:href="#path-23" fill="url(#linearGradient-24)"/>
        </g>
        <g transform="translate(1511.9753228290672, 353.4129608764304) rotate(342.00012228694516) translate(-1511.9753228290672, -353.4129608764304)" opacity="1">
          <use xlink:href="#path-25" fill="url(#linearGradient-26)"/>
        </g>
      </g>
    </g>
    <g opacity="0.38">
      <g opacity="0.32">
        <g transform="translate(788.9448301063451, 526.9856210786614) rotate(342.00012228694516) translate(-788.9448301063451, -526.9856210786614)" opacity="0.48">
          <use xlink:href="#path-27" fill="url(#linearGradient-28)"/>
        </g>
        <g transform="translate(1003.2270871935391, 605.0560324908868) rotate(342.00012228694516) translate(-1003.2270871935391, -605.0560324908868)" opacity="0.48">
          <use xlink:href="#path-29" fill="url(#linearGradient-30)"/>
        </g>
      </g>
      <g opacity="1">
        <g transform="translate(772.9448301063452, 518.9856210786542) rotate(342.00012228694516) translate(-772.9448301063452, -518.9856210786542)" opacity="1">
          <use xlink:href="#path-31" fill="url(#linearGradient-32)"/>
        </g>
        <g transform="translate(996.2270871935391, 580.0560324908813) rotate(342.00012228694516) translate(-996.2270871935391, -580.0560324908813)" opacity="1">
          <use xlink:href="#path-33" fill="url(#linearGradient-34)"/>
        </g>
      </g>
    </g>
    <g opacity="0.38">
      <g opacity="0.32">
        <g transform="translate(2424.7642880936173, 409.85330293949244) rotate(342.00012228694516) translate(-2424.7642880936173, -409.85330293949244)" opacity="0.48">
          <use xlink:href="#path-35" fill="url(#linearGradient-36)"/>
        </g>
      </g>
      <g opacity="1">
        <g transform="translate(2430.7642880936173, 382.85330293948607) rotate(342.00012228694516) translate(-2430.7642880936173, -382.85330293948607)" opacity="1">
          <use xlink:href="#path-37" fill="url(#linearGradient-38)"/>
        </g>
        <g transform="translate(2435.0465451808113, 512.9237143517123) rotate(342.00012228694516) translate(-2435.0465451808113, -512.9237143517123)" opacity="1">
          <use xlink:href="#path-39" fill="url(#linearGradient-40)"/>
        </g>
        <g transform="translate(1765.0465451808109, 464.92371435171054) rotate(342.00012228694516) translate(-1765.0465451808109, -464.92371435171054)" opacity="1">
          <use xlink:href="#path-41" fill="url(#linearGradient-42)"/>
        </g>
        <g transform="translate(2044.3684015907156, 753.2687573045473) rotate(342.00012228694516) translate(-2044.3684015907156, -753.2687573045473)" opacity="1">
          <use xlink:href="#path-43" fill-opacity="0" stroke="url(#linearGradient-44)" stroke-opacity="1" stroke-width="6" stroke-linecap="butt" stroke-linejoin="miter" mask="url(#mask-45)"/>
        </g>
        <g transform="translate(1727.4563447415678, 734.1320327551625) rotate(180.00006436155007) translate(-1727.4563447415678, -734.1320327551625)" opacity="1">
          <use xlink:href="#path-46" fill-opacity="0" stroke="url(#linearGradient-47)" stroke-opacity="1" stroke-width="6" stroke-linecap="butt" stroke-linejoin="miter" mask="url(#mask-48)"/>
        </g>
        <g transform="translate(803.9563447415679, 348.1320327551623) rotate(180.00006436155007) translate(-803.9563447415679, -348.1320327551623)" opacity="1">
          <use xlink:href="#path-49" fill-opacity="0" stroke="url(#linearGradient-50)" stroke-opacity="1" stroke-width="6" stroke-linecap="butt" stroke-linejoin="miter" mask="url(#mask-51)"/>
        </g>
      </g>
    </g>
  </g>
</svg>