<svg xmlns="http://www.w3.org/2000/svg" xmlns:xlink="http://www.w3.org/1999/xlink" height="1032.264" width="2853.709"><defs><path id="d" opacity="1" fill-rule="evenodd" d="M1778.746 194.018h538.516c29.313 0 53.112 23.799 53.112 53.112 0 29.313-23.799 53.11-53.112 53.11h-538.516c-29.313 0-53.112-23.797-53.112-53.11s23.799-53.112 53.112-53.112z"/><linearGradient id="e" x1=".16" y1=".6" x2=".67" y2=".27"><stop offset="0" stop-color="#9030D9"/><stop offset="1" stop-color="#D025BA"/></linearGradient><path id="f" opacity="1" fill-rule="evenodd" d="M1724.543 498.764h483.369c27.756 0 50.291 22.535 50.291 50.292s-22.535 50.292-50.291 50.292h-483.37c-27.756 0-50.291-22.535-50.291-50.292s22.535-50.292 50.292-50.292z"/><linearGradient id="g" x1=".16" y1=".6" x2=".67" y2=".27"><stop offset="0" stop-color="#9030D9"/><stop offset="1" stop-color="#D025BA"/></linearGradient><path id="h" opacity="1" fill-rule="evenodd" d="M1783.746 170.018h538.516c29.313 0 53.112 23.799 53.112 53.112 0 29.313-23.799 53.11-53.112 53.11h-538.516c-29.313 0-53.112-23.797-53.112-53.11s23.799-53.112 53.112-53.112z"/><linearGradient id="i" x1=".16" y1=".6" x2=".67" y2=".27"><stop offset="0" stop-color="#9030D9"/><stop offset="1" stop-color="#D025BA"/></linearGradient><path id="j" opacity="1" fill-rule="evenodd" d="M1717.543 473.764h483.369c27.756 0 50.291 22.535 50.291 50.292s-22.535 50.292-50.291 50.292h-483.37c-27.756 0-50.291-22.535-50.291-50.292s22.535-50.292 50.292-50.292z"/><linearGradient id="k" x1=".16" y1=".6" x2=".67" y2=".27"><stop offset="0" stop-color="#9030D9"/><stop offset="1" stop-color="#D025BA"/></linearGradient><path id="l" opacity="1" fill-rule="evenodd" d="M68.133 316.258h700.185c37.348 0 67.669 30.321 67.669 67.668 0 37.348-30.321 67.67-67.669 67.67H68.133c-37.348 0-67.669-30.322-67.669-67.67 0-37.347 30.321-67.668 67.669-67.668z"/><linearGradient id="m" x1=".16" y1=".6" x2=".67" y2=".27"><stop offset="0" stop-color="#9030D9" stop-opacity=".77"/><stop offset="1" stop-color="#EC0E8D" stop-opacity=".67"/></linearGradient><path id="n" opacity="1" fill-rule="evenodd" d="M250.648 156.96h530.948c29.313 0 53.111 23.798 53.111 53.11 0 29.313-23.798 53.112-53.11 53.112h-530.95c-29.312 0-53.11-23.799-53.11-53.112 0-29.312 23.798-53.11 53.11-53.11z"/><linearGradient id="o" x1=".16" y1=".6" x2=".67" y2=".27"><stop offset="0" stop-color="#9030D9"/><stop offset="1" stop-color="#D025BA"/></linearGradient><path id="p" opacity="1" fill-rule="evenodd" d="M197.048 461.705h476.514c27.757 0 50.292 22.535 50.292 50.292s-22.535 50.292-50.292 50.292H197.048c-27.757 0-50.292-22.535-50.292-50.292s22.535-50.292 50.292-50.292z"/><linearGradient id="q" x1=".16" y1=".6" x2=".67" y2=".27"><stop offset="0" stop-color="#9030D9"/><stop offset="1" stop-color="#D025BA"/></linearGradient><path id="r" opacity="1" fill-rule="evenodd" d="M74.062 289.258h700.186c37.347 0 67.668 30.321 67.668 67.668 0 37.348-30.32 67.67-67.668 67.67H74.062c-37.347 0-67.668-30.322-67.668-67.67 0-37.347 30.321-67.668 67.668-67.668z"/><linearGradient id="s" x1=".16" y1=".6" x2=".67" y2=".27"><stop offset="0" stop-color="#9030D9" stop-opacity=".77"/><stop offset="1" stop-color="#EC0E8D" stop-opacity=".67"/></linearGradient><path id="t" opacity="1" fill-rule="evenodd" d="M755.59 242.96h530.947c29.313 0 53.112 23.798 53.112 53.11 0 29.313-23.799 53.112-53.112 53.112H755.59c-29.313 0-53.111-23.799-53.111-53.112 0-29.312 23.798-53.11 53.111-53.11z"/><linearGradient id="u" x1=".16" y1=".6" x2=".67" y2=".27"><stop offset="0" stop-color="#9030D9"/><stop offset="1" stop-color="#D025BA"/></linearGradient><path id="v" opacity="1" fill-rule="evenodd" d="M190.13 436.705h476.514c27.757 0 50.292 22.535 50.292 50.292s-22.535 50.292-50.292 50.292H190.13c-27.757 0-50.292-22.535-50.292-50.292s22.535-50.292 50.292-50.292z"/><linearGradient id="w" x1=".16" y1=".6" x2=".67" y2=".27"><stop offset="0" stop-color="#9030D9"/><stop offset="1" stop-color="#D025BA"/></linearGradient><path id="x" opacity="1" fill-rule="evenodd" d="M885.056 159.643h573.84c2.08 0 3.769 1.69 3.769 3.77s-1.69 3.77-3.77 3.77h-573.84c-2.08 0-3.769-1.69-3.769-3.77s1.69-3.77 3.77-3.77z"/><linearGradient id="y" x1=".16" y1=".6" x2=".67" y2=".27"><stop offset="0" stop-color="#9030D9"/><stop offset="1" stop-color="#D025B9" stop-opacity=".05"/></linearGradient><path id="z" opacity="1" fill-rule="evenodd" d="M1606.056 89.643h573.84c2.08 0 3.769 1.69 3.769 3.77s-1.69 3.77-3.77 3.77h-573.84c-2.08 0-3.769-1.69-3.769-3.77s1.69-3.77 3.77-3.77z"/><linearGradient id="A" x1=".16" y1=".6" x2=".67" y2=".27"><stop offset="0" stop-color="#9030D9"/><stop offset="1" stop-color="#D025B9" stop-opacity=".05"/></linearGradient><path id="B" opacity="1" fill-rule="evenodd" d="M1225.056 349.643h573.84c2.08 0 3.769 1.69 3.769 3.77s-1.69 3.77-3.77 3.77h-573.84c-2.08 0-3.769-1.69-3.769-3.77s1.69-3.77 3.77-3.77z"/><linearGradient id="C" x1=".16" y1=".6" x2=".67" y2=".27"><stop offset="0" stop-color="#9030D9"/><stop offset="1" stop-color="#D025B9" stop-opacity=".05"/></linearGradient><path id="D" opacity="1" fill-rule="evenodd" d="M433.89 459.317H1144c37.347 0 67.668 30.321 67.668 67.669 0 37.347-30.321 67.668-67.668 67.668H433.89c-37.347 0-67.669-30.321-67.669-67.668 0-37.348 30.322-67.67 67.669-67.67z"/><linearGradient id="E" x1=".16" y1=".6" x2=".67" y2=".27"><stop offset="0" stop-color="#9030D9" stop-opacity=".77"/><stop offset="1" stop-color="#EC0E8D" stop-opacity=".67"/></linearGradient><path id="F" opacity="1" fill-rule="evenodd" d="M761.543 554.764h483.369c27.756 0 50.291 22.535 50.291 50.292s-22.535 50.292-50.291 50.292h-483.37c-27.756 0-50.291-22.535-50.291-50.292s22.535-50.292 50.292-50.292z"/><linearGradient id="G" x1=".16" y1=".6" x2=".67" y2=".27"><stop offset="0" stop-color="#9030D9"/><stop offset="1" stop-color="#D025BA"/></linearGradient><path id="H" opacity="1" fill-rule="evenodd" d="M417.89 451.317H1128c37.347 0 67.668 30.321 67.668 67.669 0 37.347-30.321 67.668-67.668 67.668H417.89c-37.347 0-67.669-30.321-67.669-67.668 0-37.348 30.322-67.67 67.669-67.67z"/><linearGradient id="I" x1=".16" y1=".6" x2=".67" y2=".27"><stop offset="0" stop-color="#9030D9" stop-opacity=".77"/><stop offset="1" stop-color="#EC0E8D" stop-opacity=".67"/></linearGradient><path id="J" opacity="1" fill-rule="evenodd" d="M754.543 529.764h483.369c27.756 0 50.291 22.535 50.291 50.292s-22.535 50.292-50.291 50.292h-483.37c-27.756 0-50.291-22.535-50.291-50.292s22.535-50.292 50.292-50.292z"/><linearGradient id="K" x1=".16" y1=".6" x2=".67" y2=".27"><stop offset="0" stop-color="#9030D9"/><stop offset="1" stop-color="#D025BA"/></linearGradient><path id="L" opacity="1" fill-rule="evenodd" d="M2069.71 342.185h710.11c37.347 0 67.668 30.32 67.668 67.668 0 37.348-30.321 67.67-67.669 67.67h-710.11c-37.347 0-67.668-30.322-67.668-67.67 0-37.347 30.321-67.668 67.668-67.668z"/><linearGradient id="M" x1=".16" y1=".6" x2=".67" y2=".27"><stop offset="0" stop-color="#9030D9" stop-opacity=".77"/><stop offset="1" stop-color="#EC0E8D" stop-opacity=".67"/></linearGradient><path id="N" opacity="1" fill-rule="evenodd" d="M2075.71 315.185h710.11c37.347 0 67.668 30.32 67.668 67.668 0 37.348-30.321 67.67-67.669 67.67h-710.11c-37.347 0-67.668-30.322-67.668-67.67 0-37.347 30.321-67.668 67.668-67.668z"/><linearGradient id="O" x1=".16" y1=".6" x2=".67" y2=".27"><stop offset="0" stop-color="#9030D9" stop-opacity=".77"/><stop offset="1" stop-color="#EC0E8D" stop-opacity=".67"/></linearGradient><path id="P" opacity="1" fill-rule="evenodd" d="M2193.362 462.632h483.37c27.756 0 50.29 22.535 50.29 50.292s-22.534 50.292-50.29 50.292h-483.37c-27.757 0-50.292-22.535-50.292-50.292s22.535-50.292 50.292-50.292z"/><linearGradient id="Q" x1=".16" y1=".6" x2=".67" y2=".27"><stop offset="0" stop-color="#9030D9"/><stop offset="1" stop-color="#D025BA"/></linearGradient><path id="R" opacity="1" fill-rule="evenodd" d="M1523.362 414.632h483.37c27.756 0 50.29 22.535 50.29 50.292s-22.534 50.292-50.29 50.292h-483.37c-27.757 0-50.292-22.535-50.292-50.292s22.535-50.292 50.292-50.292z"/><linearGradient id="S" x1=".16" y1=".6" x2=".67" y2=".27"><stop offset="0" stop-color="#9030D9"/><stop offset="1" stop-color="#D025BA"/></linearGradient><path id="a" opacity="1" fill-rule="evenodd" d="M2044.368 582.44c27.231 0 49.339 22.107 49.339 49.338V874.76c0 27.23-22.108 49.338-49.339 49.338-27.23 0-49.338-22.108-49.338-49.338V631.778c0-27.23 22.108-49.339 49.338-49.339z"/><linearGradient id="T" x1=".5" y1="0" x2=".5" y2="1"><stop offset="0" stop-color="#D71DE1"/><stop offset="1" stop-color="#461AF9"/></linearGradient><mask id="U" maskUnits="userSpaceOnUse" maskContentUnits="userSpaceOnUse"><path d="M0 0h2853.709v1032.264H0z"/><use xlink:href="#a" fill="#fff"/></mask><path id="b" opacity="1" fill-rule="evenodd" d="M1727.456 436c99.045 0 179.457 80.412 179.457 179.456v237.352c0 99.044-80.412 179.456-179.457 179.456-99.044 0-179.456-80.412-179.456-179.456V615.456C1548 516.412 1628.412 436 1727.456 436z"/><linearGradient id="V" x1=".5" y1="0" x2=".5" y2="1"><stop offset="0" stop-color="#E84CF0"/><stop offset="1" stop-color="#6D4BF4"/></linearGradient><mask id="W" maskUnits="userSpaceOnUse" maskContentUnits="userSpaceOnUse"><path d="M0 0h2853.709v1032.264H0z"/><use xlink:href="#b" fill="#fff"/></mask><path id="c" opacity="1" fill-rule="evenodd" d="M803.956 66c102.632 0 185.957 83.324 185.957 185.956v192.352c0 102.632-83.325 185.956-185.957 185.956C701.324 630.264 618 546.94 618 444.308V251.956C618 149.324 701.324 66 803.956 66z"/><linearGradient id="X" x1=".5" y1="0" x2=".5" y2="1"><stop offset="0" stop-color="#E84CF0"/><stop offset="1" stop-color="#6D4BF4"/></linearGradient><mask id="Y" maskUnits="userSpaceOnUse" maskContentUnits="userSpaceOnUse"><path d="M0 0h2853.709v1032.264H0z"/><use xlink:href="#c" fill="#fff"/></mask></defs><g opacity=".38"><g opacity=".32"><use xlink:href="#d" fill="url(#e)" transform="rotate(-18 2048.004 247.13)" opacity=".48"/><use xlink:href="#f" fill="url(#g)" transform="rotate(-18 1966.227 549.056)" opacity=".48"/></g><use xlink:href="#h" fill="url(#i)" transform="rotate(-18 2053.004 223.13)"/><use xlink:href="#j" fill="url(#k)" transform="rotate(-18 1959.227 524.056)"/></g><g opacity=".38"><g opacity=".32"><use xlink:href="#l" fill="url(#m)" transform="rotate(-18 418.226 383.926)" opacity=".48"/><use xlink:href="#n" fill="url(#o)" transform="rotate(-18 516.122 210.07)" opacity=".48"/><use xlink:href="#p" fill="url(#q)" transform="rotate(-18 435.305 511.997)" opacity=".48"/></g><use xlink:href="#r" fill="url(#s)" transform="rotate(-18 424.155 356.926)"/><use xlink:href="#t" fill="url(#u)" transform="rotate(-18 1021.063 296.07)"/><use xlink:href="#v" fill="url(#w)" transform="rotate(-18 428.387 486.997)"/><use xlink:href="#x" fill="url(#y)" transform="rotate(-18 1171.975 163.413)"/><use xlink:href="#z" fill="url(#A)" transform="rotate(-18 1892.975 93.413)"/><use xlink:href="#B" fill="url(#C)" transform="rotate(-18 1511.975 353.413)"/></g><g opacity=".38"><g opacity=".32"><use xlink:href="#D" fill="url(#E)" transform="rotate(-18 788.945 526.986)" opacity=".48"/><use xlink:href="#F" fill="url(#G)" transform="rotate(-18 1003.227 605.056)" opacity=".48"/></g><use xlink:href="#H" fill="url(#I)" transform="rotate(-18 772.945 518.986)"/><use xlink:href="#J" fill="url(#K)" transform="rotate(-18 996.227 580.056)"/></g><g opacity=".38"><g opacity=".32"><use xlink:href="#L" fill="url(#M)" transform="rotate(-18 2424.764 409.853)" opacity=".48"/></g><use xlink:href="#N" fill="url(#O)" transform="rotate(-18 2430.764 382.853)"/><use xlink:href="#P" fill="url(#Q)" transform="rotate(-18 2435.047 512.924)"/><use xlink:href="#R" fill="url(#S)" transform="rotate(-18 1765.047 464.924)"/><use xlink:href="#a" fill-opacity="0" stroke="url(#T)" stroke-width="6" mask="url(#U)" transform="rotate(-18 2044.368 753.269)"/><use xlink:href="#b" fill-opacity="0" stroke="url(#V)" stroke-width="6" mask="url(#W)" transform="rotate(-180 1727.456 734.132)"/><use xlink:href="#c" fill-opacity="0" stroke="url(#X)" stroke-width="6" mask="url(#Y)" transform="rotate(-180 803.956 348.132)"/></g></svg>