<svg xmlns="http://www.w3.org/2000/svg" xmlns:xlink="http://www.w3.org/1999/xlink" height="473.728" width="1160.444"><defs><path id="a" opacity="1" fill-rule="evenodd" d="M0 473.728S32.341 305.866 192.968 237.07c160.627-68.796 205.905 197.582 379.468 161.257C746 362.003 598.31-59.028 987.48 7.017c389.17 66.043 0 466.71 0 466.71"/><linearGradient id="b" x1=".51" y1=".6" x2=".93" y2=".99"><stop offset="0" stop-color="#C626B0"/><stop offset="1" stop-color="#3099B0"/></linearGradient><path id="c" opacity="1" fill-rule="evenodd" d="M30 433.374s30-152.5 179-215 191 179.5 352 146.5 24-415.5 385-355.5 0 424 0 424"/><linearGradient id="d" x1=".51" y1=".6" x2=".93" y2=".99"><stop offset="0" stop-color="#C626B0"/><stop offset="1" stop-color="#3099B0"/></linearGradient></defs><use xlink:href="#a" fill="url(#b)" transform="matrix(1 0 0 -1 0 473.728)" opacity=".24"/><use xlink:href="#c" fill="url(#d)" transform="matrix(1 0 0 -1 24 436.374)"/></svg>