<svg xmlns="http://www.w3.org/2000/svg" viewBox="0 0 466 466" width="512" height="512"><path d="M433.048 292.414c-20.875-35.124-50.677-64.523-86.184-85.018a7.999 7.999 0 0 0-10.928 2.93 8 8 0 0 0 2.93 10.928c66.169 38.193 108.145 107.761 110.98 183.007-99.805-3.644-184.841-73.942-207.109-171.045 43.647-3.252 84.213-22.066 115.086-53.588 33.169-33.866 51.436-78.627 51.436-126.037a8 8 0 0 0-8-8c-40.426 0-80.274 13.738-112.206 38.684-19.909 15.554-36.273 35.062-48.054 56.92V93.591a8 8 0 0 0-16 0v47.604c-11.781-21.858-28.145-41.366-48.054-56.92-31.932-24.945-71.78-38.684-112.206-38.684a8 8 0 0 0-8 8c0 47.41 18.267 92.171 51.436 126.037 30.874 31.522 71.439 50.336 115.086 53.588-22.268 97.103-107.304 167.4-207.109 171.045 2.836-75.246 44.812-144.813 110.98-183.007a8 8 0 1 0-7.998-13.858C83.627 227.89 53.825 257.29 32.95 292.414A234.996 234.996 0 0 0 0 412.409a8 8 0 0 0 8 8c95.677 0 179.985-57.174 217-141.677v36.954a8 8 0 0 0 16 0v-36.954c37.015 84.503 121.323 141.677 217 141.677a8 8 0 0 0 8-8c0-42.23-11.395-83.723-32.952-119.995zM393.054 61.789C388.909 143.902 322.966 211.349 241 217.3v-32.679c18.009-69.856 79.74-119.334 152.054-122.832zm-320.108 0C145.26 65.287 206.991 114.765 225 184.621V217.3c-81.966-5.951-147.909-73.398-152.054-155.511z" data-original="#000000" class="active-path" data-old_color="#ff1053" fill="#ff1053"/></svg>