<svg xmlns="http://www.w3.org/2000/svg" xmlns:xlink="http://www.w3.org/1999/xlink" height="614.112" width="851.89"><defs><path id="a" opacity="1" fill-rule="evenodd" d="M67.89 280.317H778c37.347 0 67.668 30.321 67.668 67.669 0 37.347-30.321 67.668-67.668 67.668H67.89c-37.347 0-67.669-30.321-67.669-67.668"/><linearGradient id="b" x1=".16" y1=".6" x2=".67" y2=".27"><stop offset="0" stop-color="#9030D9" stop-opacity=".77"/><stop offset="1" stop-color="#EC0E8D" stop-opacity=".67"/></linearGradient><path id="c" opacity="1" fill-rule="evenodd" d="M252.746 121.018h538.516c29.313 0 53.112 23.799 53.112 53.112 0 29.313-23.799 53.11-53.112 53.11H252.746c-29.313 0-53.112-23.797-53.112-53.11"/><linearGradient id="d" x1=".16" y1=".6" x2=".67" y2=".27"><stop offset="0" stop-color="#9030D9"/><stop offset="1" stop-color="#D025BA"/></linearGradient><path id="e" opacity="1" fill-rule="evenodd" d="M198.543 425.764h483.369c27.756 0 50.291 22.535 50.291 50.292s-22.535 50.292-50.291 50.292h-483.37c-27.756 0-50.291-22.535-50.291-50.292"/><linearGradient id="f" x1=".16" y1=".6" x2=".67" y2=".27"><stop offset="0" stop-color="#9030D9"/><stop offset="1" stop-color="#D025BA"/></linearGradient><path id="g" opacity="1" fill-rule="evenodd" d="M73.89 253.317H784c37.347 0 67.668 30.321 67.668 67.669 0 37.347-30.321 67.668-67.668 67.668H73.89c-37.347 0-67.669-30.321-67.669-67.668"/><linearGradient id="h" x1=".16" y1=".6" x2=".67" y2=".27"><stop offset="0" stop-color="#9030D9" stop-opacity=".77"/><stop offset="1" stop-color="#EC0E8D" stop-opacity=".67"/></linearGradient><path id="i" opacity="1" fill-rule="evenodd" d="M257.746 97.018h538.516c29.313 0 53.112 23.799 53.112 53.112 0 29.313-23.799 53.11-53.112 53.11H257.746c-29.313 0-53.112-23.797-53.112-53.11"/><linearGradient id="j" x1=".16" y1=".6" x2=".67" y2=".27"><stop offset="0" stop-color="#9030D9"/><stop offset="1" stop-color="#D025BA"/></linearGradient><path id="k" opacity="1" fill-rule="evenodd" d="M191.543 400.764h483.369c27.756 0 50.291 22.535 50.291 50.292s-22.535 50.292-50.291 50.292h-483.37c-27.756 0-50.291-22.535-50.291-50.292"/><linearGradient id="l" x1=".16" y1=".6" x2=".67" y2=".27"><stop offset="0" stop-color="#9030D9"/><stop offset="1" stop-color="#D025BA"/></linearGradient></defs><g opacity=".32"><use xlink:href="#a" fill="url(#b)" transform="rotate(-18 422.945 347.986)" opacity=".48"/><use xlink:href="#c" fill="url(#d)" transform="rotate(-18 522.004 174.13)" opacity=".48"/><use xlink:href="#e" fill="url(#f)" transform="rotate(-18 440.227 476.056)" opacity=".48"/></g><use xlink:href="#g" fill="url(#h)" transform="rotate(-18 428.945 320.986)"/><use xlink:href="#i" fill="url(#j)" transform="rotate(-18 527.004 150.13)"/><use xlink:href="#k" fill="url(#l)" transform="rotate(-18 433.227 451.056)"/></svg>