<svg xmlns="http://www.w3.org/2000/svg" width="512" height="512"><path d="M389.095 211.72a7.493 7.493 0 0 1-6.405-3.588l-.503-.817a7.5 7.5 0 0 1 2.43-10.324 7.498 7.498 0 0 1 10.325 2.43l.544.886a7.5 7.5 0 0 1-6.391 11.413zm-27.136-33.187c-2.345 0-4.145-1.121-5.807-2.654a7.5 7.5 0 0 1-.45-10.597 7.498 7.498 0 0 1 10.597-.45l.758.698a7.501 7.501 0 0 1-5.098 13.003zm-35.118-24.577c-1.564 0-2.901-.567-4.263-1.258-3.699-1.864-5.186-6.374-3.321-10.073s6.374-5.187 10.073-3.321c1.802.914 3.346 1.988 4.259 3.864a7.553 7.553 0 0 1-.06 6.693 7.501 7.501 0 0 1-6.688 4.095zm-40.48-14.049a12.968 12.968 0 0 1-2.395-.324 7.5 7.5 0 0 1-5.966-8.77 7.499 7.499 0 0 1 8.769-5.967c1.95.379 3.703.964 5.093 2.471a7.552 7.552 0 0 1 1.846 6.555 7.502 7.502 0 0 1-7.347 6.035z" data-original="#000000" class="active-path" data-old_color="#000000" fill="#FF1053"/><path d="M479.932 343.502l-15.974-13.147c6.46-29.692 6.435-60.784-.076-90.502l16.246-13.874a7.5 7.5 0 0 0 2.033-8.636l-18.985-44.695a7.51 7.51 0 0 0-7.627-4.532l-20.638 2.003c-16.46-25.578-38.453-47.528-64.015-63.892l1.684-21.336a7.5 7.5 0 0 0-4.67-7.545l-45.035-18.175a7.496 7.496 0 0 0-8.597 2.188l-13.195 16.025c-12.351-2.686-24.945-4.233-37.582-4.675V45.112h25.633c12.439 0 22.56-10.118 22.56-22.556S301.572 0 289.133 0h-66.266c-12.276 0-22.56 10.277-22.56 22.557s10.283 22.556 22.56 22.556H248.5V72.71c-12.729.447-25.421 2.016-37.872 4.736l-13.889-16.261a7.502 7.502 0 0 0-8.636-2.032l-44.707 18.993a7.5 7.5 0 0 0-4.532 7.627l1.998 20.617c-25.606 16.455-47.583 38.454-63.97 64.032l-21.28-1.677a7.503 7.503 0 0 0-7.544 4.669l-18.183 45.034a7.5 7.5 0 0 0 2.188 8.598l15.973 13.15c-6.462 29.688-6.437 60.784.072 90.503l-16.246 13.868a7.5 7.5 0 0 0-2.034 8.637l18.988 44.701a7.51 7.51 0 0 0 7.628 4.532l20.637-2.005c16.459 25.576 38.455 47.533 64.016 63.901l-1.685 21.327a7.501 7.501 0 0 0 4.669 7.546l45.04 18.181a7.499 7.499 0 0 0 8.598-2.188l13.192-16.026c29.674 6.454 60.749 6.432 90.456-.064l13.887 16.262a7.499 7.499 0 0 0 8.636 2.033l44.705-18.991a7.502 7.502 0 0 0 4.533-7.627l-1.998-20.618c25.605-16.455 47.584-38.455 63.974-64.034l21.277 1.674a7.504 7.504 0 0 0 7.543-4.669l18.185-45.037a7.499 7.499 0 0 0-2.187-8.6zM215.308 22.557c0-4.167 3.391-7.557 7.56-7.557h66.266c4.168 0 7.56 3.39 7.56 7.557 0 4.166-3.392 7.556-7.56 7.556h-66.266c-4.169-.001-7.56-3.39-7.56-7.556zm236.778 363.865l-20.329-1.6a7.5 7.5 0 0 0-6.992 3.572c-16.203 26.571-38.834 49.215-65.447 65.481a7.5 7.5 0 0 0-3.554 7.123l1.914 19.758-34.578 14.69-13.268-15.537a7.504 7.504 0 0 0-7.468-2.42c-30.288 7.331-62.283 7.347-92.525.046a7.499 7.499 0 0 0-7.55 2.524l-12.643 15.359-34.835-14.063 1.609-20.38a7.498 7.498 0 0 0-3.574-6.995c-26.556-16.183-49.195-38.789-65.47-65.377a7.502 7.502 0 0 0-7.122-3.55l-19.772 1.921-14.686-34.572 15.523-13.25a7.5 7.5 0 0 0 2.42-7.471c-7.345-30.3-7.364-62.31-.055-92.568a7.503 7.503 0 0 0-2.523-7.551L45.854 218.96l14.064-34.831 20.332 1.602a7.494 7.494 0 0 0 6.993-3.572c16.198-26.57 38.828-49.213 65.442-65.479a7.5 7.5 0 0 0 3.554-7.123L154.324 89.8l34.581-14.691 13.27 15.536a7.501 7.501 0 0 0 7.466 2.419c30.286-7.324 62.28-7.341 92.524-.042a7.509 7.509 0 0 0 7.549-2.523L322.36 75.14l34.831 14.057-1.609 20.39a7.5 7.5 0 0 0 3.575 6.995c26.555 16.175 49.193 38.778 65.467 65.365a7.512 7.512 0 0 0 7.122 3.549l19.774-1.919 14.683 34.568-15.523 13.257a7.501 7.501 0 0 0-2.418 7.471c7.345 30.296 7.365 62.305.058 92.565a7.502 7.502 0 0 0 2.524 7.552l15.306 12.598-14.064 34.834z" data-original="#000000" class="active-path" data-old_color="#000000" fill="#FF1053"/><path d="M402.175 224.722c-1-.063-2.029.072-3.031.437l-85.47 31.13c13.667-23.504 25.991-45.62 28.637-50.383 3.558-6.405-3.768-13.751-10.185-10.206-5.996 3.315-39.463 21.874-68.625 39.174V129.449a7.5 7.5 0 0 0-7.5-7.5c-37.246 0-73.682 12.862-102.598 36.216-7.51 6.065 1.864 17.777 9.425 11.67 24.313-19.637 54.482-31.104 85.673-32.694v106.768c-13.984 8.577-25.22 15.995-29.093 19.86-14.856 14.825-14.977 39.802-.052 54.645 14.902 14.819 39.741 14.932 54.654.051 5.003-4.991 15.958-22.248 27.687-41.849l96.138-35.015c4.338 14.093 6.54 28.751 6.54 43.677 0 81.787-66.561 148.325-148.375 148.325s-148.375-66.538-148.375-148.325c0-34.047 11.222-66.063 32.451-92.59 6.032-7.537-5.637-16.96-11.711-9.373-23.047 28.798-35.74 65.009-35.74 101.963 0 90.058 73.29 163.325 163.375 163.325s163.375-73.268 163.375-163.325c0-19.103-3.27-37.815-9.719-55.621a7.498 7.498 0 0 0-7.481-4.935zm-138.76 83.124c-9.228 9.207-24.231 9.194-33.445-.031-4.461-4.469-6.915-10.406-6.909-16.72a23.481 23.481 0 0 1 6.941-16.708c6.861-6.847 49.38-31.816 86.179-52.592-20.849 36.748-45.903 79.203-52.766 86.051z" data-original="#000000" class="active-path" data-old_color="#000000" fill="#FF1053"/></svg>